<?xml version="1.0" encoding="UTF-8"?>
<svg version="1.1" xmlns="http://www.w3.org/2000/svg" width="512" height="512">
<path d="M0 0 C32.52962583 29.91855219 54.5493798 75.30106218 60 119 C60.99 119.061875 61.98 119.12375 63 119.1875 C68.85197933 120.03027998 73.32051264 123.2763156 77.375 127.4375 C81.28482717 133.60299669 81.91245049 139.84599989 81 147 C78.92345514 154.02597947 75.49579131 158.08001371 69.28125 161.84375 C66.90093736 163.05020983 64.49339343 164.05180813 62 165 C62.50789063 165.46148437 63.01578125 165.92296875 63.5390625 166.3984375 C74.42462899 176.71322522 79.97278679 188.70877154 80.47265625 203.74560547 C80.63073297 219.66901174 76.83625728 232.85713496 65.875 244.75 C60.21611518 250.17790993 53.39797997 253.53400668 46 256 C45.07040578 258.13343976 45.07040578 258.13343976 44.4921875 260.79296875 C44.23268311 261.80472168 43.97317871 262.81647461 43.70581055 263.85888672 C43.43164307 264.9573291 43.15747559 266.05577148 42.875 267.1875 C29.64268251 317.00370253 -0.86629295 360.56182286 -45.4375 386.94018555 C-91.80513249 413.37905099 -149.37687739 417.46297958 -200.43017578 403.73876953 C-213.62063442 399.94679463 -225.935044 394.48558483 -238 388 C-238.90226318 387.52675293 -238.90226318 387.52675293 -239.82275391 387.04394531 C-254.25986861 379.44546389 -266.23240215 369.18008195 -278 358 C-278.68191406 357.38253906 -279.36382812 356.76507813 -280.06640625 356.12890625 C-304.40188161 333.3175734 -322.90665683 297.07271476 -329.68725586 264.72094727 C-329.91292236 263.64514404 -330.13858887 262.56934082 -330.37109375 261.4609375 C-330.55341553 260.48044434 -330.7357373 259.49995117 -330.92358398 258.48974609 C-331.82017095 255.75454424 -331.82017095 255.75454424 -334.68115234 254.38085938 C-336.70330846 253.631075 -338.74278197 252.92716006 -340.79296875 252.2578125 C-350.88621381 248.29919507 -358.30331604 238.05070381 -362.75 228.5 C-368.27484644 214.28558925 -368.26407879 198.88575247 -362.8125 184.625 C-359.07581466 176.44825325 -353.45760812 170.14260285 -347 164 C-347.83402344 163.78085938 -348.66804688 163.56171875 -349.52734375 163.3359375 C-362.71992643 159.61843998 -370.61081247 154.25030164 -377.54296875 142.3515625 C-382.4388904 132.34029414 -382.85521447 120.59491487 -379.4375 110 C-375.48672855 100.88283512 -368.26230096 91.98487232 -358.87109375 88.125 C-356.9375 87.5625 -356.9375 87.5625 -354 87 C-354.42152344 86.16855469 -354.84304688 85.33710938 -355.27734375 84.48046875 C-355.82519531 83.39378906 -356.37304688 82.30710938 -356.9375 81.1875 C-357.48277344 80.10855469 -358.02804687 79.02960938 -358.58984375 77.91796875 C-361.7788988 71.31900996 -362.04442254 64.39789974 -360.3515625 57.26953125 C-357.54332588 49.52887903 -352.88810851 43.44569282 -345.875 39.0625 C-337.74938978 35.27901274 -327.79579732 36.06190804 -319 36 C-319.62261719 35.27167969 -320.24523437 34.54335937 -320.88671875 33.79296875 C-324.85157443 28.55290995 -326.35127576 22.54902166 -326.0625 16 C-325.01555469 8.85150243 -321.30100713 2.41722558 -315.5625 -2 C-310.36700782 -5.54178916 -305.12990522 -6.12011109 -299.0078125 -5.95703125 C-283.03560137 -5.53686263 -274.66331965 -7.43977787 -263.00244141 -18.25878906 C-194.89093062 -77.48474553 -75.60770223 -62.87973646 0 0 Z " fill="#612F10" transform="translate(406,78)"/>
<path d="M0 0 C4.15704633 1.62493657 6.89595505 4.67222824 9.9375 7.8125 C10.44990234 8.33392578 10.96230469 8.85535156 11.49023438 9.39257812 C12.51704827 10.43765809 13.54202773 11.48454352 14.56518555 12.53320312 C16.69177681 14.70719672 18.84804657 16.85112078 21 19 C22.52761423 20.53879403 24.05492346 22.07789088 25.58203125 23.6171875 C27.32545173 25.3698604 29.06894335 27.12246256 30.8125 28.875 C32.10897461 30.18404297 32.10897461 30.18404297 33.43164062 31.51953125 C38.45587486 36.56272486 43.57561234 41.39122648 49 46 C50.02134789 46.88873193 51.0422158 47.77801589 52.0625 48.66796875 C53.031875 49.49941406 54.00125 50.33085937 55 51.1875 C55.53544434 51.65542969 56.07088867 52.12335938 56.62255859 52.60546875 C59.71231529 55.25408321 62.82059353 57.57312504 66.2890625 59.70703125 C77.78285113 66.96606306 77.78285113 66.96606306 79.64453125 73.4921875 C80.40326519 77.38001801 80.75543792 81.24126895 80.88233948 85.19750977 C81.01015269 88.24182122 81.25275471 91.26576078 81.49926758 94.30273438 C82.07690179 102.288585 82.18221168 110.25577829 82.203125 118.2578125 C82.20595238 119.00227505 82.20877975 119.74673759 82.21169281 120.51375961 C82.22652889 124.44390954 82.23585964 128.37402415 82.24023438 132.30419922 C82.24573691 136.3226778 82.26984729 140.34082071 82.29820633 144.3591938 C82.31695936 147.49076256 82.3220447 150.62225179 82.32357025 153.75387192 C82.32656212 155.234413 82.33447046 156.71495389 82.34775543 158.19543839 C82.5104756 177.69808904 77.14906621 193.42113242 64 208 C63.40832031 208.68449219 62.81664062 209.36898437 62.20703125 210.07421875 C51.83145669 221.33470372 36.64369614 229.16771356 22 233 C21.70867187 232.2265625 21.41734375 231.453125 21.1171875 230.65625 C15.41272509 216.16189267 7.93415651 208.82082292 -5.71875 201.61328125 C-19.12602153 196.00220624 -33.75867502 196.54029955 -47.99609375 196.56640625 C-50.20077168 196.56183314 -52.40544818 196.55652426 -54.61012268 196.55052185 C-59.20832141 196.54163832 -63.80634602 196.54395965 -68.40454102 196.55395508 C-74.25551702 196.56544353 -80.10588934 196.54521004 -85.95678616 196.51603794 C-90.50311509 196.49756853 -95.04930216 196.49798961 -99.59565926 196.50367546 C-101.75111806 196.50382734 -103.90658732 196.49789554 -106.06200981 196.48538399 C-122.19214095 196.40491297 -137.92323709 197.11823292 -152 206 C-152.84046875 206.52980469 -153.6809375 207.05960938 -154.546875 207.60546875 C-162.31274203 213.12394093 -168.42731384 221.56315883 -170.71484375 230.92578125 C-170.80894531 231.61027344 -170.90304688 232.29476562 -171 233 C-183.85663677 231.1633376 -195.86474501 223.83090029 -206 216 C-207.5159375 214.88625 -207.5159375 214.88625 -209.0625 213.75 C-221.41347166 202.96906711 -230.69970478 186.16680945 -232.21115112 169.69949341 C-232.52370625 163.52954469 -232.41367963 157.36185367 -232.3125 151.1875 C-232.29547363 149.24968629 -232.27986487 147.31185963 -232.265625 145.37402344 C-232.11536818 128.57719617 -231.66095874 111.78413323 -231 95 C-229.44164429 94.86537354 -229.44164429 94.86537354 -227.85180664 94.72802734 C-204.29052859 92.66281658 -181.15804535 89.83987606 -158 85 C-156.35402832 84.66427979 -156.35402832 84.66427979 -154.67480469 84.32177734 C-94.32567603 71.80125003 -46.15412891 39.43649029 0 0 Z " fill="#FDBF8B" transform="translate(338,148)"/>
<path d="M0 0 C1.26397362 -0.01052147 1.26397362 -0.01052147 2.55348206 -0.02125549 C3.47462799 -0.01361176 4.39577393 -0.00596802 5.34483337 0.00190735 C6.31741592 -0.00174332 7.28999847 -0.00539398 8.29205322 -0.00915527 C11.5128668 -0.01727375 14.73317938 -0.00364065 17.95396423 0.01094055 C20.18690999 0.01145896 22.41985621 0.01094201 24.65280151 0.00942993 C29.33439438 0.00951971 34.01581524 0.01996165 38.69737244 0.03804016 C44.70910129 0.06074053 50.72057898 0.06126964 56.73233891 0.05452251 C61.34330492 0.05118712 65.95421328 0.05780429 70.56516838 0.06765175 C72.78242631 0.07151048 74.99969065 0.07264919 77.21695137 0.0710659 C80.31048514 0.07069657 83.40369225 0.08327796 86.49717712 0.0995636 C87.42034729 0.09708618 88.34351746 0.09460876 89.29466248 0.09205627 C90.13449173 0.09914108 90.97432098 0.10622589 91.83959961 0.11352539 C92.57129395 0.11557826 93.3029883 0.11763113 94.0568552 0.11974621 C95.85630798 0.3742218 95.85630798 0.3742218 97.85630798 2.3742218 C98.92179427 10.63174053 96.27730597 16.44988093 91.85630798 23.3742218 C82.94841514 34.73749537 68.85610689 41.04853584 54.85630798 43.3742218 C36.28356065 45.03990629 19.69345748 41.75481638 5.04380798 29.6242218 C-1.93071219 23.08717153 -6.37499013 15.1387984 -7.45619202 5.6242218 C-6.84235626 1.20460433 -4.17480568 -0.00095659 0 0 Z " fill="#FEFDFC" transform="translate(217.14369201660156,369.6257781982422)"/>
<path d="M0 0 C5.23425304 -0.16674213 8.0771344 0.53699185 12 4 C21.54288193 13.0638216 27.72215311 24.65483293 28.3359375 37.91796875 C28.62791036 54.9534624 25.74162324 68.87482108 13.875 81.75 C8.20016963 87.17432852 1.01620957 92 -7 92 C-6.89042969 91.36578125 -6.78085937 90.7315625 -6.66796875 90.078125 C-6.21540737 87.4142678 -5.77806188 84.74820915 -5.34373474 82.08132935 C-5.11171238 80.6764235 -4.87457806 79.27235369 -4.63270569 77.86911011 C-2.42316822 65.00700837 -1.50823267 52.47579672 -1.375 39.4375 C-1.32564563 35.99860436 -1.26896147 32.55985286 -1.2109375 29.12109375 C-1.1916922 27.8739711 -1.1916922 27.8739711 -1.17205811 26.60165405 C-1.01608733 17.72199815 -0.53004466 8.86408419 0 0 Z " fill="#FCAF78" transform="translate(458,241)"/>
<path d="M0 0 C0.02505615 1.14251221 0.0501123 2.28502441 0.07592773 3.4621582 C0.17182184 7.7993034 0.27155771 12.13635395 0.37231445 16.47338867 C0.41498994 18.33208974 0.45669425 20.19081342 0.49731445 22.04956055 C0.90074121 40.45279361 1.39192572 58.52675062 4.5625 76.6875 C4.7998025 78.09423702 5.03613209 79.50113851 5.27148438 80.90820312 C5.83656796 84.27408736 6.41438243 87.63761947 7 91 C-3.95467519 89.5844273 -12.20740974 83.67942088 -19 75 C-28.44854808 59.86630859 -30.7068911 44.37259412 -27 27 C-24.52979365 18.86850362 -20.73469722 12.25266987 -15 6 C-14.14728516 5.06607422 -14.14728516 5.06607422 -13.27734375 4.11328125 C-8.77400731 -0.2874735 -6.19708299 -0.09966926 0 0 Z " fill="#FDAF79" transform="translate(68,242)"/>
<path d="M0 0 C1.97115383 0.95548296 3.73921264 2.00831772 5.546875 3.2421875 C6.43375 3.7784375 7.320625 4.3146875 8.234375 4.8671875 C13.33298807 10.10360092 15.84559422 16.00532023 16.171875 23.3046875 C15.86247311 29.99120617 13.64960122 34.92318546 9.08984375 39.80078125 C7.609375 41.1171875 7.609375 41.1171875 4.546875 43.2421875 C3.70125 43.8403125 2.855625 44.4384375 1.984375 45.0546875 C-4.17532288 47.18258313 -10.85897077 47.44201643 -17.0859375 45.36328125 C-23.17790474 42.23469469 -28.01570595 37.82582189 -30.5859375 31.41796875 C-32.21744099 25.44313839 -32.72110901 18.73480418 -30.578125 12.83203125 C-23.96754034 1.54619757 -12.90180058 -3.98558808 0 0 Z " fill="#451C08" transform="translate(190.453125,260.7578125)"/>
<path d="M0 0 C6.94259209 3.12890721 11.0431703 7.72675953 14.265625 14.55078125 C16.11459626 20.08940369 16.15535955 26.244133 14.2265625 31.765625 C10.85182103 38.24382647 6.19505742 42.95242403 -0.7421875 45.65625 C-6.52135017 47.02920025 -12.56507319 46.94067974 -18.17578125 45.03515625 C-24.63896312 40.5259596 -30.22692968 36.25727521 -31.86328125 28.16015625 C-32.52481603 21.01558061 -32.8417136 14.8089091 -28.42578125 8.875 C-20.35975938 0.022541 -12.08568228 -3.54491363 0 0 Z " fill="#451C08" transform="translate(351.86328125,260.83984375)"/>
<path d="M0 0 C0 3 0 3 -1.42578125 4.640625 C-2.04839844 5.17171875 -2.67101562 5.7028125 -3.3125 6.25 C-4.23482422 7.06210938 -4.23482422 7.06210938 -5.17578125 7.890625 C-5.77777344 8.25671875 -6.37976563 8.6228125 -7 9 C-7.99 8.67 -8.98 8.34 -10 8 C-6.7 5.36 -3.4 2.72 0 0 Z " fill="#EDB485" transform="translate(310,171)"/>
<path d="M0 0 C-0.50603992 2.16874252 -0.99983813 3.99967627 -2 6 C-2.66 6 -3.32 6 -4 6 C-4.33 5.01 -4.66 4.02 -5 3 C-2.25 0 -2.25 0 0 0 Z " fill="#653523" transform="translate(310,393)"/>
</svg>
