<svg width="29" height="29" viewBox="0 0 29 29" fill="none" xmlns="http://www.w3.org/2000/svg">
<path d="M5.02585 19.07L7.22795 8.70992C7.82134 5.91828 8.11803 4.52246 9.16184 3.83791C10.2057 3.15334 11.589 3.44737 14.3556 4.03543L18.2682 4.86708C21.0348 5.45514 22.4181 5.74917 23.0932 6.79911C23.7684 7.84905 23.4717 9.24487 22.8783 12.0365L20.6762 22.3966C20.3619 23.8753 20.2048 24.6145 19.691 24.8095C18.8515 25.1282 17.922 23.8882 17.4248 23.4041C17.014 23.0041 16.8087 22.8041 16.5472 22.7395C16.2647 22.6697 15.9928 22.7619 15.4116 22.9762L13.2919 23.7576C12.7201 23.9684 12.4342 24.0738 12.1537 24.0142C11.8731 23.9546 11.6549 23.742 11.2182 23.3169L9.59964 21.7408C9.18885 21.3408 8.98345 21.1408 8.72203 21.0762C8.43957 21.0064 8.16768 21.0986 7.58635 21.3129C6.93531 21.5529 5.58173 22.3076 4.94441 21.675C4.55441 21.288 4.71155 20.5487 5.02585 19.07Z" stroke="#F4F5F8" stroke-width="2" stroke-linecap="round" stroke-linejoin="round"/>
<path d="M19.3928 9.19546L11.5676 7.53217" stroke="#F4F5F8" stroke-width="2" stroke-linecap="round" stroke-linejoin="round"/>
<path d="M12.6923 11.8606L10.736 11.4448" stroke="#F4F5F8" stroke-width="2" stroke-linecap="round" stroke-linejoin="round"/>
<path d="M17.1199 12.6739C16.3096 12.5017 15.5305 12.9368 15.3798 13.6459C15.2291 14.3549 15.7638 15.0693 16.5741 15.2415C17.3844 15.4138 17.9192 16.1282 17.7685 16.8372C17.6178 17.5463 16.8387 17.9814 16.0284 17.8092M17.1199 12.6739C17.7587 12.8097 18.2263 13.2824 18.3217 13.8239M17.1199 12.6739L17.3018 11.818M16.0284 17.8092C15.3895 17.6734 14.922 17.2007 14.8266 16.6592M16.0284 17.8092L15.8464 18.6651" stroke="#F4F5F8" stroke-width="2" stroke-linecap="round"/>
</svg>
