<svg width="27" height="27" viewBox="0 0 27 27" fill="none" xmlns="http://www.w3.org/2000/svg">
<path d="M8.76477 8.82568L16.7097 7.88877" stroke="#E37B2C" stroke-width="2" stroke-linecap="round" stroke-linejoin="round"/>
<path d="M9.23315 12.7982L13.2056 12.3298" stroke="#E37B2C" stroke-width="2" stroke-linecap="round" stroke-linejoin="round"/>
<path d="M15.4285 22.6404L15.3699 22.1438C15.0387 19.3349 14.873 17.9304 15.6428 16.9549C16.4125 15.9793 17.817 15.8137 20.6259 15.4824L21.1225 15.4239M21.425 13.7198L21.0335 10.3997C20.5918 6.65444 20.371 4.78181 19.0702 3.7555C17.7696 2.7292 15.8969 2.95004 12.1516 3.3917C8.40633 3.83336 6.53369 4.0542 5.50738 5.35491C4.48108 6.65563 4.70191 8.52827 5.14358 12.2736L5.67577 16.7865C6.05581 20.0092 6.24582 21.6205 7.2545 22.6082C7.45828 22.8077 7.6828 22.9848 7.92426 23.1366C9.11945 23.8879 10.7308 23.6978 13.9534 23.3178C14.6542 23.2352 15.0045 23.1939 15.312 23.0428C15.3759 23.0114 15.4381 22.9766 15.4984 22.9386C15.788 22.7555 16.0065 22.4786 16.4435 21.9247L20.5927 16.6661C21.0991 16.0242 21.3523 15.7034 21.4605 15.3205C21.5686 14.9377 21.5207 14.5317 21.425 13.7198Z" stroke="#E37B2C" stroke-width="2" stroke-linecap="round" stroke-linejoin="round"/>
</svg>
