<svg width="29" height="29" viewBox="0 0 29 29" fill="none" xmlns="http://www.w3.org/2000/svg">
<path d="M5.0472 17.4257C4.22426 15.252 3.8128 14.1653 4.02592 13.079C4.23902 11.9927 5.03667 11.1109 6.63197 9.34728L7.82391 8.02961C9.80844 5.83573 10.8007 4.73879 12.1535 4.45123C13.5064 4.16367 14.859 4.7622 17.5643 5.95922L19.1892 6.67816C21.3639 7.64041 22.4512 8.12156 23.0877 9.02727C23.7242 9.93297 23.7904 11.0931 23.9227 13.4136L24.0356 15.3923C24.2231 18.6817 24.3169 20.3264 23.3765 21.5194C22.4361 22.7124 20.766 23.0674 17.4257 23.7774L15.1979 24.2509C11.8576 24.9609 10.1875 25.3159 8.84316 24.6086C7.4988 23.9012 6.91551 22.3605 5.74894 19.2792L5.0472 17.4257Z" stroke="white" stroke-width="2" stroke-linejoin="round"/>
<path d="M13.759 15.6114C15.1666 16.5255 16.9464 17.3802 16.9464 17.3802L18.5969 14.8386C18.5969 14.8386 17.0922 13.5603 15.6846 12.6462C14.277 11.7321 12.4972 10.8774 12.4972 10.8774L10.8467 13.419C10.8467 13.419 12.3514 14.6972 13.759 15.6114ZM13.759 15.6114L10.8706 20.0591M18.872 14.4151L16.6713 17.8037M12.7722 10.4538L10.5716 13.8425" stroke="white" stroke-width="2" stroke-linecap="round" stroke-linejoin="round"/>
</svg>
